<?xml version="1.0" encoding="UTF-8"?>
<svg version="1.1" xmlns="http://www.w3.org/2000/svg" width="512" height="250">
<path d="M0 0 C168.96 0 337.92 0 512 0 C512 82.5 512 165 512 250 C343.04 250 174.08 250 0 250 C0 167.5 0 85 0 0 Z " fill="#FEFEFE" transform="translate(0,0)"/>
<path d="M0 0 C2.6993225 1.81192487 4.54054976 3.08109953 6 6 C6.8502135 11.95149451 5.17238594 15.28975669 1.78125 19.9765625 C-0.91627327 23.04085429 -3.22294892 24.42050591 -7 26 C-8.66575476 26.0551257 -10.33461998 26.06547648 -12 26 C-3.95774776 36.26628248 4.6364231 45.5967327 14.9375 53.625 C15.48116211 54.05111572 16.02482422 54.47723145 16.58496094 54.91625977 C19.30741086 56.97505951 21.579593 58.52196721 25 59 C24.505 56.03 24.505 56.03 24 53 C28.50970832 49.50861291 32.53572016 49.4916949 38 50 C39.09634766 50.28617188 39.09634766 50.28617188 40.21484375 50.578125 C40.80394531 50.71734375 41.39304687 50.8565625 42 51 C42.33 50.67 42.66 50.34 43 50 C44.66617115 49.95936168 46.33388095 49.957279 48 50 C48 49.01 48 48.02 48 47 C47.29875 46.9175 46.5975 46.835 45.875 46.75 C42.34727053 45.82972275 39.93888386 44.11873023 37 42 C37 43.65 37 45.3 37 47 C35.68 47 34.36 47 33 47 C33 44.03 33 41.06 33 38 C37.44870215 37.60746746 40.14243493 38.84694043 44 41 C44 39.68 44 38.36 44 37 C44.66 37 45.32 37 46 37 C46 35.68 46 34.36 46 33 C44.989375 32.87625 43.97875 32.7525 42.9375 32.625 C39.12062388 32.01914665 35.68499888 31.12806088 32 30 C32.495 28.515 32.495 28.515 33 27 C34.32 27 35.64 27 37 27 C37 27.66 37 28.32 37 29 C45.58 29 54.16 29 63 29 C63.33 28.34 63.66 27.68 64 27 C65.65 27.33 67.3 27.66 69 28 C69 28.66 69 29.32 69 30 C68.34 30 67.68 30 67 30 C68.95099131 32.2952839 70.68828189 33.38237883 73.375 34.875 C79.01140157 38.00765266 82.79908779 42.4280417 86 48 C86 49.32 86 50.64 86 52 C95.46900068 44.74714842 103.99217145 36.70492046 111 27 C110.26394531 26.78085937 109.52789062 26.56171875 108.76953125 26.3359375 C102.38858673 24.26234126 98.69478134 22.66533139 95 17 C93.12296744 13.24593487 93.35327673 9.07883883 94 5 C96.66735408 1.49032358 98.07548134 0.35603595 102.34375 -0.43359375 C108.30979498 -0.73742011 113.19333199 0.39766345 118 4 C121.67674554 7.45309922 123.30011399 10.62372109 123.5 15.6875 C123.33204988 18.58216978 123.02068411 19.96145233 121.625 22.5625 C120 24 120 24 118 24 C118 24.66 118 25.32 118 26 C120.64 25.67 123.28 25.34 126 25 C116.67857916 38.56531976 103.79095748 49.21829352 89.6953125 57.578125 C86.57672049 59.49541682 84.77302002 61.16557819 83 64.4375 C78.18237247 72.24179689 71.71074451 75.72407239 63 78 C62.41863281 78.185625 61.83726562 78.37125 61.23828125 78.5625 C57.82101463 79.2304474 54.40595937 79.19054819 50.9375 79.1875 C49.8093689 79.1884668 49.8093689 79.1884668 48.65844727 79.18945312 C42.61830382 79.13262295 36.88062971 78.42252814 31 77 C31 76.34 31 75.68 31 75 C28.85217187 73.51763144 26.61631356 72.23495313 24.359375 70.92578125 C21.75747398 68.80204416 20.67378633 66.60437912 19.1171875 63.67456055 C17.23089821 60.84718767 14.61442093 59.74129007 11.625 58.25 C4.27469903 54.38680496 -2.04092709 49.59825373 -8.41796875 44.30712891 C-9.51454859 43.40109673 -10.62219716 42.50835938 -11.73828125 41.62646484 C-13.19519623 40.46170055 -14.60250852 39.23543298 -16 38 C-16 37.34 -16 36.68 -16 36 C-16.66 36 -17.32 36 -18 36 C-19.60178593 34.21895282 -21.13381926 32.37462722 -22.625 30.5 C-23.44226563 29.4790625 -24.25953125 28.458125 -25.1015625 27.40625 C-25.72804687 26.6121875 -26.35453125 25.818125 -27 25 C-24.53721199 23.768606 -22.7204945 23.92840804 -20 24 C-20.474375 23.566875 -20.94875 23.13375 -21.4375 22.6875 C-23.73055533 20.21100024 -23.99288134 18.06169506 -24.375 14.75 C-23.77241705 8.72417051 -20.7191919 5.67621211 -16.5 1.5625 C-11.18892603 -0.80851517 -5.71878779 -0.97341069 0 0 Z " fill="#E7393F" transform="translate(160,35)"/>
<path d="M0 0 C1 2 1 2 0.44140625 3.93359375 C0.15136719 4.75988281 -0.13867188 5.58617188 -0.4375 6.4375 C-7.84185228 32.60864377 2.6724853 64.18725791 15.19189453 87.18994141 C18.135462 92.36566504 21.12646747 97.56565396 24.76171875 102.2890625 C26 104 26 104 26 106 C25.34 106 24.68 106 24 106 C22.49424388 104.24379357 21.07296571 102.41507854 19.6875 100.5625 C18.78310244 99.35635797 17.87812605 98.1506498 16.97265625 96.9453125 C16.49070801 96.30110352 16.00875977 95.65689453 15.51220703 94.99316406 C13.9926965 92.99037363 12.43840357 91.02023628 10.87109375 89.0546875 C-0.71903155 74.42700475 -15.19239213 55.71691579 -19 37 C-21.68674602 37.36307379 -23.55872304 37.66904228 -25.75 39.3125 C-28.79220059 43.4194708 -28.65076117 49.12311926 -28 54 C-24.00924659 66.24479949 -13.43038368 74.84931348 -4 83 C-4.99 83.495 -4.99 83.495 -6 84 C-8.55845449 82.66887093 -10.9444117 81.28907383 -13.375 79.75 C-14.44886963 79.07142944 -14.44886963 79.07142944 -15.54443359 78.37915039 C-26.41027872 71.3230135 -35.89084354 62.96543227 -41.375 51 C-42.66803833 44.793416 -43.0651271 40.06834132 -39.625 34.5 C-33.5257271 26.31562684 -25.42801346 20.4442166 -17.12988281 14.68237305 C-12.66746396 11.56150416 -8.62213086 8.15563575 -4.671875 4.3984375 C-3 3 -3 3 -1 3 C-0.67 2.01 -0.34 1.02 0 0 Z " fill="#107846" transform="translate(278,73)"/>
<path d="M0 0 C4.5527194 3.32648552 8.97135029 6.77608709 13.3125 10.375 C17.91177008 14.16827839 22.63630661 17.71868396 27.4921875 21.17578125 C31.83421781 24.33423632 35.34624898 27.05541287 38.25 31.625 C38.75015625 32.40101562 39.2503125 33.17703125 39.765625 33.9765625 C42.60072313 38.6239702 42.64122741 42.6287775 42 48 C37.60291893 61.89906601 25.56809067 70.31821685 14 78 C12.91976562 78.7321875 11.83953125 79.464375 10.7265625 80.21875 C5.21773401 83.86238459 5.21773401 83.86238459 3 85 C2.34 84.67 1.68 84.34 1 84 C1.59425781 83.55011719 2.18851563 83.10023438 2.80078125 82.63671875 C19.85200837 69.65848465 19.85200837 69.65848465 28.4609375 50.81640625 C28.63978233 45.19655125 28.27771961 41.68705851 25 37 C24.34 36.34 23.68 35.68 23 35 C22.01 35 21.02 35 20 35 C19.75507813 35.64582031 19.51015625 36.29164062 19.2578125 36.95703125 C12.63382091 53.65405832 3.77746817 68.66795789 -7 83 C-7.93779297 84.25296875 -7.93779297 84.25296875 -8.89453125 85.53125 C-10.56721385 87.71265602 -12.27639036 89.8585456 -14 92 C-15.03032428 93.29006409 -16.06023131 94.58046147 -17.08984375 95.87109375 C-20.05466914 99.5849368 -23.02600636 103.29349561 -26 107 C-26 103.58743751 -25.36668822 102.62356304 -23.5859375 99.7890625 C-23.07490479 98.96277344 -22.56387207 98.13648438 -22.03735352 97.28515625 C-21.21448853 95.96837891 -21.21448853 95.96837891 -20.375 94.625 C-15.6550923 86.9176781 -11.51477053 79.33502726 -8 71 C-7.56300781 70.06800781 -7.12601563 69.13601562 -6.67578125 68.17578125 C-0.43104052 54.42985046 2.19836797 38.89861101 2.1875 23.875 C2.18814453 22.95372314 2.18878906 22.03244629 2.18945312 21.08325195 C2.13405977 13.88904025 1.46638849 7.0569946 0 0 Z " fill="#211E1E" transform="translate(141,74)"/>
<path d="M0 0 C2.6993225 1.81192487 4.54054976 3.08109953 6 6 C6.8502135 11.95149451 5.17238594 15.28975669 1.78125 19.9765625 C-0.91627327 23.04085429 -3.22294892 24.42050591 -7 26 C-8.66575476 26.0551257 -10.33461998 26.06547648 -12 26 C3.48463714 45.7668084 23.35447821 63.70492555 48 71 C47.67 71.66 47.34 72.32 47 73 C40.89371753 72.49858423 36.10856692 71.12179676 30.5625 68.5625 C29.78680664 68.20905518 29.01111328 67.85561035 28.21191406 67.49145508 C14.21679299 60.9657835 1.84182204 52.87071209 -10 43 C-10.56928223 42.54963379 -11.13856445 42.09926758 -11.72509766 41.63525391 C-13.18619281 40.46731795 -14.59789848 39.23813762 -16 38 C-16 37.34 -16 36.68 -16 36 C-16.66 36 -17.32 36 -18 36 C-19.60178593 34.21895282 -21.13381926 32.37462722 -22.625 30.5 C-23.44226563 29.4790625 -24.25953125 28.458125 -25.1015625 27.40625 C-25.72804687 26.6121875 -26.35453125 25.818125 -27 25 C-24.53721199 23.768606 -22.7204945 23.92840804 -20 24 C-20.474375 23.566875 -20.94875 23.13375 -21.4375 22.6875 C-23.73055533 20.21100024 -23.99288134 18.06169506 -24.375 14.75 C-23.77241705 8.72417051 -20.7191919 5.67621211 -16.5 1.5625 C-11.18892603 -0.80851517 -5.71878779 -0.97341069 0 0 Z " fill="#221E1F" transform="translate(160,35)"/>
<path d="M0 0 C4.97944461 2.16497592 8.61933638 5.27621633 10.75390625 10.3359375 C11.50693183 14.62239081 11.45167287 18.03555426 9.37890625 21.8984375 C7.75390625 23.3359375 7.75390625 23.3359375 5.75390625 23.3359375 C5.75390625 23.9959375 5.75390625 24.6559375 5.75390625 25.3359375 C9.71390625 24.8409375 9.71390625 24.8409375 13.75390625 24.3359375 C1.72719814 41.83822004 -15.67993248 53.64860553 -34.24609375 63.3359375 C-35.37660156 63.93535156 -36.50710937 64.53476563 -37.671875 65.15234375 C-42.78742743 67.79612241 -47.62186047 70.05770266 -53.24609375 71.3359375 C-53.24609375 70.6759375 -53.24609375 70.0159375 -53.24609375 69.3359375 C-53.90609375 69.0059375 -54.56609375 68.6759375 -55.24609375 68.3359375 C-54.2303125 67.85125 -53.21453125 67.3665625 -52.16796875 66.8671875 C-32.17766255 57.19650483 -14.50120338 44.39243359 -1.24609375 26.3359375 C-1.98214844 26.11679687 -2.71820313 25.89765625 -3.4765625 25.671875 C-9.85750702 23.59827876 -13.55131241 22.00126889 -17.24609375 16.3359375 C-19.12312631 12.58187237 -18.89281702 8.41477633 -18.24609375 4.3359375 C-13.52131065 -1.88088237 -7.24466226 -2.14190015 0 0 Z " fill="#107746" transform="translate(272.24609375,35.6640625)"/>
<path d="M0 0 C0.495 0.99 0.495 0.99 1 2 C-4.97777442 10.82433366 -10.70996576 15.18498139 -21 18 C-21.58265625 18.18691406 -22.1653125 18.37382813 -22.765625 18.56640625 C-26.18179046 19.22933346 -29.59589361 19.19054656 -33.0625 19.1875 C-33.8145874 19.18814453 -34.5666748 19.18878906 -35.34155273 19.18945312 C-41.38169618 19.13262295 -47.11937029 18.42252814 -53 17 C-53 16.34 -53 15.68 -53 15 C-55.1700263 13.40773752 -57.44632228 12.04268098 -59.73828125 10.6328125 C-62.06733133 8.9513912 -63.48185611 7.42706498 -65 5 C-65 4.34 -65 3.68 -65 3 C-61.57647629 4.06043109 -58.30347438 5.27552236 -55.046875 6.76171875 C-43.94624483 11.83137456 -43.94624483 11.83137456 -32 11 C-28.2275038 10.45237958 -24.81682435 10 -21 10 C-13.61832309 7.4895889 -6.69254449 3.97158575 0 0 Z " fill="#0C7443" transform="translate(244,95)"/>
<path d="M0 0 C0.94875 0.185625 1.8975 0.37125 2.875 0.5625 C3.57625 0.706875 4.2775 0.85125 5 1 C5 2.32 5 3.64 5 5 C4.34 5 3.68 5 3 5 C3 6.32 3 7.64 3 9 C-0.8063457 8.32829194 -4.35206816 7.27253436 -8 6 C-8 8.97 -8 11.94 -8 15 C-6.68 15 -5.36 15 -4 15 C-4 13.35 -4 11.7 -4 10 C-3.484375 10.268125 -2.96875 10.53625 -2.4375 10.8125 C0.66401415 12.32349407 3.82262806 13.65572726 7 15 C7 15.99 7 16.98 7 18 C5.5225254 18.36116046 4.04295325 18.71375048 2.5625 19.0625 C1.32693359 19.35833984 1.32693359 19.35833984 0.06640625 19.66015625 C-0.95646484 19.82837891 -0.95646484 19.82837891 -2 20 C-2.33 19.67 -2.66 19.34 -3 19 C-4.99990516 18.80010237 -4.99990516 18.80010237 -7.3125 18.8125 C-8.09238281 18.79832031 -8.87226563 18.78414062 -9.67578125 18.76953125 C-12.2032668 19.02015587 -13.81718031 19.73626228 -16 21 C-16 22.98 -16 24.96 -16 27 C-19.76159981 26.47755558 -22.32191002 25.7772785 -25 23 C-25.5625 20.625 -25.5625 20.625 -25 18 C-22.625 15.1875 -22.625 15.1875 -20 13 C-19.34 13 -18.68 13 -18 13 C-15.87721885 10.70032042 -15.01522935 9.06091742 -14.25 6 C-12.73525037 2.36460088 -11.30690445 1.34418232 -7.8671875 -0.3828125 C-4.98501653 -1.33549663 -2.87568752 -0.8126943 0 0 Z " fill="#F7CABA" transform="translate(201,67)"/>
<path d="M0 0 C1.92846274 0.64609391 1.92846274 0.64609391 3.84765625 -0.578125 C3.84765625 2.391875 3.84765625 5.361875 3.84765625 8.421875 C7.14765625 8.421875 10.44765625 8.421875 13.84765625 8.421875 C9.453125 13.59765625 9.453125 13.59765625 7.84765625 15.421875 C7.43128906 16.01355469 7.01492187 16.60523437 6.5859375 17.21484375 C4.84765625 18.421875 4.84765625 18.421875 1.65625 18.36328125 C-2.73134062 17.27875885 -6.18550156 15.57783832 -10.08984375 13.359375 C-10.77369141 12.98232422 -11.45753906 12.60527344 -12.16210938 12.21679688 C-13.83092171 11.29486558 -15.49242239 10.35971988 -17.15234375 9.421875 C-16.49234375 9.091875 -15.83234375 8.761875 -15.15234375 8.421875 C-15.48234375 6.441875 -15.81234375 4.461875 -16.15234375 2.421875 C-11.29256024 -1.34053804 -5.82242137 -1.56391717 0 0 Z " fill="#EB9387" transform="translate(200.15234375,85.578125)"/>
<path d="M0 0 C1.77155654 0.11429397 3.54226229 0.24183037 5.3125 0.375 C6.79169922 0.47941406 6.79169922 0.47941406 8.30078125 0.5859375 C11 1 11 1 14 3 C10.7 2.67 7.4 2.34 4 2 C4 2.99 4 3.98 4 5 C6.64 5 9.28 5 12 5 C11.43606856 8.01337409 10.92827561 10.28941861 8.41552734 12.21289062 C6.37363765 13.32374457 4.31097541 14.30455236 2.1875 15.25 C1.47529297 15.58773437 0.76308594 15.92546875 0.02929688 16.2734375 C-1.96850023 17.21227277 -3.97890411 18.11266381 -6 19 C-6.91910156 19.4125 -7.83820313 19.825 -8.78515625 20.25 C-12.08245891 21.36654693 -14.65120906 20.74417577 -18 20 C-18.99 19.34 -19.98 18.68 -21 18 C-20.319375 17.67 -19.63875 17.34 -18.9375 17 C-15.51854651 14.67220188 -13.36553634 11.98958218 -10.84375 8.7421875 C-8.61136119 6.63276926 -7.00792239 6.33993643 -4 6 C-3.67 5.01 -3.34 4.02 -3 3 C-2.34 3.66 -1.68 4.32 -1 5 C-0.67 3.35 -0.34 1.7 0 0 Z " fill="#E44648" transform="translate(223,86)"/>
<path d="M0 0 C5.61 0.33 11.22 0.66 17 1 C16.67 2.65 16.34 4.3 16 6 C13.9375 7.3125 13.9375 7.3125 12 8 C11.65099442 11.71736641 11.65099442 11.71736641 13.5 14.8125 C13.995 15.204375 14.49 15.59625 15 16 C14.67 16.66 14.34 17.32 14 18 C11.69 18 9.38 18 7 18 C7 17.01 7 16.02 7 15 C6.29875 14.9175 5.5975 14.835 4.875 14.75 C1.34727053 13.82972275 -1.06111614 12.11873023 -4 10 C-4 11.65 -4 13.3 -4 15 C-5.32 15 -6.64 15 -8 15 C-8 12.03 -8 9.06 -8 6 C-3.55129785 5.60746746 -0.85756507 6.84694043 3 9 C3 7.68 3 6.36 3 5 C3.66 5 4.32 5 5 5 C5 3.68 5 2.36 5 1 C3.35 1 1.7 1 0 1 C0 0.67 0 0.34 0 0 Z " fill="#E48B81" transform="translate(201,67)"/>
<path d="M0 0 C0.33 0.66 0.66 1.32 1 2 C-3.69679502 8.93336407 -8.73695843 14.56252461 -17 17 C-19.89453125 16.5390625 -19.89453125 16.5390625 -22.8125 15.625 C-24.27623047 15.18027344 -24.27623047 15.18027344 -25.76953125 14.7265625 C-26.50558594 14.48679687 -27.24164063 14.24703125 -28 14 C-24.61621671 11.11909634 -20.92294101 9.66007052 -16.8125 8.125 C-10.91900251 5.85579229 -5.39923772 3.3068502 0 0 Z " fill="#DF242D" transform="translate(244,95)"/>
<path d="M0 0 C0.33 0 0.66 0 1 0 C1 2.97 1 5.94 1 9 C4.3 9 7.6 9 11 9 C6.60546875 14.17578125 6.60546875 14.17578125 5 16 C4.51015625 16.57363281 4.0203125 17.14726563 3.515625 17.73828125 C2 19 2 19 -1.4375 18.875 C-4.8009077 18.04889986 -6.49248642 17.30691249 -9 15 C-7.8803014 13.99406757 -6.7540588 12.9954151 -5.625 12 C-4.99851563 11.443125 -4.37203125 10.88625 -3.7265625 10.3125 C-2 9 -2 9 0 9 C0 6.03 0 3.06 0 0 Z " fill="#ED6865" transform="translate(203,85)"/>
<path d="M0 0 C0.66 0.33 1.32 0.66 2 1 C1.34 1.66 0.68 2.32 0 3 C0.495 3.99 0.495 3.99 1 5 C0.50709473 5.34667725 0.01418945 5.69335449 -0.49365234 6.05053711 C-10.98260787 13.45400175 -20.94455122 20.85939026 -30 30 C-30.66 29.34 -31.32 28.68 -32 28 C-31.29875 27.525625 -30.5975 27.05125 -29.875 26.5625 C-27.25510945 24.22738016 -26.10554836 22.63546901 -24.375 19.6875 C-21.32466899 14.90082672 -17.74559235 12.60364862 -12.90234375 9.7734375 C-8.26768713 6.94149389 -4.16199827 3.47585539 0 0 Z " fill="#E6EEE9" transform="translate(268,78)"/>
<path d="M0 0 C5.21979128 -0.1799928 9.07262981 0.02905192 14 2 C14.33 3.65 14.66 5.3 15 7 C10.13948404 9.59227518 5.34728867 9.18689553 0 9 C0 6.03 0 3.06 0 0 Z " fill="#EA2631" transform="translate(204,85)"/>
<path d="M0 0 C5.44545616 1.69612569 10.63474207 3.89157682 15.875 6.125 C16.75414062 6.49753906 17.63328125 6.87007813 18.5390625 7.25390625 C20.69358227 8.16723528 22.84719024 9.08264932 25 10 C20.98365968 12.67756021 17.83326672 13.66268337 13 13 C7.99603357 10.38923491 3.15436859 7.43205252 0.68359375 2.2265625 C0.45800781 1.49179688 0.23242188 0.75703125 0 0 Z " fill="#D75451" transform="translate(179,98)"/>
<path d="M0 0 C0.33 0.66 0.66 1.32 1 2 C3.01669827 3.13350534 3.01669827 3.13350534 5 4 C5 4.66 5 5.32 5 6 C6.70840281 4.36587557 7.93453047 3.13093906 9 1 C9.99 1.33 10.98 1.66 12 2 C12 4 12 4 10 6.125 C9.34 6.74375 8.68 7.3625 8 8 C8.61875 7.505 9.2375 7.01 9.875 6.5 C12 5 12 5 14 5 C13 8 13 8 11 9 C11.33 9.99 11.66 10.98 12 12 C9.36 11.67 6.72 11.34 4 11 C4.33 10.01 4.66 9.02 5 8 C4.01 7.67 3.02 7.34 2 7 C2 6.67 2 6.34 2 6 C1.34 6 0.68 6 0 6 C0.33 6.99 0.66 7.98 1 9 C0.01 9 -0.98 9 -2 9 C-2.33 8.01 -2.66 7.02 -3 6 C-3.928125 6.495 -3.928125 6.495 -4.875 7 C-7 8 -7 8 -9 8 C-9.33 6.35 -9.66 4.7 -10 3 C-8.35 2.34 -6.7 1.68 -5 1 C-5 1.66 -5 2.32 -5 3 C-4.67 2.34 -4.34 1.68 -4 1 C-3.34 1.33 -2.68 1.66 -2 2 C-1.34 1.34 -0.68 0.68 0 0 Z " fill="#878888" transform="translate(248,152)"/>
<path d="M0 0 C1.32 0 2.64 0 4 0 C4 0.66 4 1.32 4 2 C12.58 2 21.16 2 30 2 C30.33 1.34 30.66 0.68 31 0 C33.475 0.495 33.475 0.495 36 1 C36 1.66 36 2.32 36 3 C29.79352931 5.19667221 24.04558201 5.30028616 17.5 5.25 C16.49324219 5.25773437 15.48648438 5.26546875 14.44921875 5.2734375 C8.90652484 5.25890881 4.23377663 4.85240409 -1 3 C-0.67 2.01 -0.34 1.02 0 0 Z " fill="#EA1D2A" transform="translate(193,62)"/>
<path d="M0 0 C3.84814487 -0.58305225 5.76308635 0.2997117 8.8125 2.5 C9.88364055 3.32219744 10.9491359 4.15204049 12 5 C12 3.35 12 1.7 12 0 C12.99 0 13.98 0 15 0 C15 2.64 15 5.28 15 8 C10.44262737 7.56179109 7.42346555 7.14958831 4 4 C4 5.65 4 7.3 4 9 C2.68 9 1.36 9 0 9 C0 6.03 0 3.06 0 0 Z " fill="#362E2F" transform="translate(193,73)"/>
<path d="M0 0 C2.4375 0.5 2.4375 0.5 4 1 C4 1.66 4 2.32 4 3 C1.03 3 -1.94 3 -5 3 C-5.33 4.32 -5.66 5.64 -6 7 C-4.02 7 -2.04 7 0 7 C-0.66 6.34 -1.32 5.68 -2 5 C0.31 5 2.62 5 5 5 C5 6.32 5 7.64 5 9 C3.06280622 9.05406122 1.12518079 9.09282025 -0.8125 9.125 C-1.89144531 9.14820312 -2.97039062 9.17140625 -4.08203125 9.1953125 C-7 9 -7 9 -10 7 C-10.375 4.5 -10.375 4.5 -10 2 C-6.30594568 -0.46270288 -4.36722928 -0.22985417 0 0 Z " fill="#242122" transform="translate(222,73)"/>
<path d="M0 0 C1.16402344 -0.02513672 1.16402344 -0.02513672 2.3515625 -0.05078125 C3.35316406 0.12904297 3.35316406 0.12904297 4.375 0.3125 C5.035 1.3025 5.695 2.2925 6.375 3.3125 C3.075 3.3125 -0.225 3.3125 -3.625 3.3125 C-3.625 4.6325 -3.625 5.9525 -3.625 7.3125 C-0.13265756 7.41228121 2.96937148 7.09092938 6.375 6.3125 C6.045 6.9725 5.715 7.6325 5.375 8.3125 C2.58898777 9.24117074 0.76433911 9.47592217 -2.125 9.5 C-3.28515625 9.52126953 -3.28515625 9.52126953 -4.46875 9.54296875 C-6.625 9.3125 -6.625 9.3125 -9.625 7.3125 C-9.375 4.9375 -9.375 4.9375 -8.625 2.3125 C-5.75631093 0.44466467 -3.38958634 0.01700461 0 0 Z " fill="#1D1A1B" transform="translate(193.625,84.6875)"/>
<path d="M0 0 C1.45792884 -0.05399736 2.91642712 -0.09279177 4.375 -0.125 C5.18710938 -0.14820312 5.99921875 -0.17140625 6.8359375 -0.1953125 C9 0 9 0 11 2 C11 2.66 11 3.32 11 4 C9.68 4 8.36 4 7 4 C7 5.98 7 7.96 7 10 C6.113125 9.195625 5.22625 8.39125 4.3125 7.5625 C1.61712968 5.2960841 -0.42063478 4.31582634 -4 4 C-3.01 3.67 -2.02 3.34 -1 3 C-0.67 2.01 -0.34 1.02 0 0 Z " fill="#E65655" transform="translate(216,82)"/>
<path d="M0 0 C0.33 0.66 0.66 1.32 1 2 C0.67 2.66 0.34 3.32 0 4 C0.66 4 1.32 4 2 4 C2 4.99 2 5.98 2 7 C2.99 6.34 3.98 5.68 5 5 C5.99 5 6.98 5 8 5 C7.67 6.98 7.34 8.96 7 11 C5.68 11 4.36 11 3 11 C3 10.34 3 9.68 3 9 C0.36 9.66 -2.28 10.32 -5 11 C-4.46884894 6.48521602 -2.63379708 3.65333143 0 0 Z " fill="#A5A6A6" transform="translate(218,146)"/>
<path d="M0 0 C0.33 0 0.66 0 1 0 C1 2.97 1 5.94 1 9 C2.98 9 4.96 9 7 9 C5.33784732 10.33895632 3.67036393 11.67130142 2 13 C1.38125 13.5775 0.7625 14.155 0.125 14.75 C-2.92375273 16.54338396 -5.53794226 16.1997341 -9 16 C-6.03839944 12.87386607 -3.90432869 10.95216435 0 9 C0 6.03 0 3.06 0 0 Z " fill="#F27E77" transform="translate(203,85)"/>
<path d="M0 0 C1.98 0 3.96 0 6 0 C6 0.66 6 1.32 6 2 C11.28 2.33 16.56 2.66 22 3 C22 2.34 22 1.68 22 1 C25.21451269 -0.60725635 28.43612536 -0.05748185 32 0 C31.01 0.33 30.02 0.66 29 1 C28.67 1.99 28.34 2.98 28 4 C24.22918278 4.02899599 20.45839417 4.04679729 16.6875 4.0625 C15.0797168 4.07506836 15.0797168 4.07506836 13.43945312 4.08789062 C12.41142578 4.09111328 11.38339844 4.09433594 10.32421875 4.09765625 C9.37635498 4.10289307 8.42849121 4.10812988 7.4519043 4.11352539 C5 4 5 4 2 3 C2 2.34 2 1.68 2 1 C1.34 0.67 0.68 0.34 0 0 Z " fill="#F8B49F" transform="translate(195,61)"/>
<path d="M0 0 C1.77155654 0.11429397 3.54226229 0.24183037 5.3125 0.375 C6.79169922 0.47941406 6.79169922 0.47941406 8.30078125 0.5859375 C11 1 11 1 14 3 C10.7 2.67 7.4 2.34 4 2 C4 2.99 4 3.98 4 5 C6.31 5 8.62 5 11 5 C11 5.33 11 5.66 11 6 C8.69 6 6.38 6 4 6 C3.67 6.99 3.34 7.98 3 9 C1.68 9 0.36 9 -1 9 C-0.67 6.03 -0.34 3.06 0 0 Z " fill="#1B7446" transform="translate(223,86)"/>
<path d="M0 0 C2.64 0 5.28 0 8 0 C8 0.33 8 0.66 8 1 C9.66611905 1.042721 11.33382885 1.04063832 13 1 C13.33 0.67 13.66 0.34 14 0 C16.67058851 -0.14115161 19.32432238 -0.04247107 22 0 C19 2 19 2 17 2 C17 2.66 17 3.32 17 4 C14.72975032 4.08097324 12.45867925 4.13917704 10.1875 4.1875 C8.29064453 4.23970703 8.29064453 4.23970703 6.35546875 4.29296875 C3 4 3 4 1.05078125 2.55078125 C0 1 0 1 0 0 Z " fill="#FCDBCF" transform="translate(200,60)"/>
<path d="M0 0 C0.66 0 1.32 0 2 0 C2.33 0.99 2.66 1.98 3 3 C3.99 3 4.98 3 6 3 C5.67 4.98 5.34 6.96 5 9 C3.906875 8.95875 2.81375 8.9175 1.6875 8.875 C-2.08892229 8.67925334 -2.08892229 8.67925334 -5 11 C-6.32 10.01 -7.64 9.02 -9 8 C-8.071875 7.79375 -7.14375 7.5875 -6.1875 7.375 C-2.73995905 6.25553808 -2.73995905 6.25553808 -1.125 2.875 C-0.75375 1.92625 -0.3825 0.9775 0 0 Z " fill="#8E8F8F" transform="translate(187,149)"/>
<path d="M0 0 C2.64 0 5.28 0 8 0 C9.99785435 4.1205746 10.17835515 7.45194365 10 12 C9.01 12 8.02 12 7 12 C7 10.02 7 8.04 7 6 C6.01 6 5.02 6 4 6 C4 7.65 4 9.3 4 11 C3.01 10.67 2.02 10.34 1 10 C1.66 9.67 2.32 9.34 3 9 C3 7.68 3 6.36 3 5 C3.66 5 4.32 5 5 5 C5 3.68 5 2.36 5 1 C3.35 1 1.7 1 0 1 C0 0.67 0 0.34 0 0 Z " fill="#E89D8F" transform="translate(201,67)"/>
<path d="M0 0 C-3.94511961 2.65112038 -7.99380619 2.29626525 -12.5625 2.25 C-13.33013672 2.25773437 -14.09777344 2.26546875 -14.88867188 2.2734375 C-18.77207821 2.25989467 -20.70024677 2.19983549 -24 0 C-15.69329062 -2.62317138 -8.39084728 -1.43716752 0 0 Z " fill="#D9393E" transform="translate(223,112)"/>
<path d="M0 0 C0.598125 0.185625 1.19625 0.37125 1.8125 0.5625 C4.16408762 1.22093687 4.16408762 1.22093687 7 0 C7.33 0.99 7.66 1.98 8 3 C5 5 5 5 3 5 C1.28806675 5.31432217 -0.41995264 5.65024669 -2.125 6 C-3.03507813 6.185625 -3.94515625 6.37125 -4.8828125 6.5625 C-5.58148438 6.706875 -6.28015625 6.85125 -7 7 C-6.6875 5.125 -6.6875 5.125 -6 3 C-5.01 2.34 -4.02 1.68 -3 1 C-3 1.99 -3 2.98 -3 4 C-2.34 4 -1.68 4 -1 4 C-0.67 2.68 -0.34 1.36 0 0 Z " fill="#979898" transform="translate(170,156)"/>
<path d="M0 0 C0.66 1.32 1.32 2.64 2 4 C1.01 4.33 0.02 4.66 -1 5 C-1.73323796 7.01508358 -1.73323796 7.01508358 -2 9 C-2.33 8.01 -2.66 7.02 -3 6 C-3.928125 6.495 -3.928125 6.495 -4.875 7 C-7 8 -7 8 -9 8 C-9.33 6.35 -9.66 4.7 -10 3 C-8.35 2.34 -6.7 1.68 -5 1 C-5 1.66 -5 2.32 -5 3 C-4.67 2.34 -4.34 1.68 -4 1 C-3.34 1.33 -2.68 1.66 -2 2 C-1.34 1.34 -0.68 0.68 0 0 Z " fill="#9FA0A0" transform="translate(248,152)"/>
<path d="M0 0 C4.05281712 1.22527029 7.44360764 2.69880494 11 5 C10.67 6.32 10.34 7.64 10 9 C6.00523669 9 4.8578664 7.71130915 2 5 C0.6875 2.25 0.6875 2.25 0 0 Z " fill="#F07771" transform="translate(179,98)"/>
<path d="M0 0 C3.20285942 0.21352396 5.81448135 1.07195818 8.8125 2.1875 C8.8125 2.5175 8.8125 2.8475 8.8125 3.1875 C7.1625 3.1875 5.5125 3.1875 3.8125 3.1875 C3.4825 4.1775 3.1525 5.1675 2.8125 6.1875 C1.1625 6.1875 -0.4875 6.1875 -2.1875 6.1875 C-2.56968767 4.53135343 -2.90145102 2.86292976 -3.1875 1.1875 C-2.1875 0.1875 -2.1875 0.1875 0 0 Z " fill="#E9B6A3" transform="translate(192.1875,86.8125)"/>
<path d="M0 0 C0.99 0 1.98 0 3 0 C3 2.64 3 5.28 3 8 C-0.375 7.75 -0.375 7.75 -4 7 C-5.4375 4.9375 -5.4375 4.9375 -6 3 C-3 3 -3 3 0 5 C0 3.35 0 1.7 0 0 Z " fill="#121012" transform="translate(205,73)"/>
<path d="M0 0 C0.66 0.33 1.32 0.66 2 1 C0.76067171 4.43198603 -0.50301511 7.30325632 -3 10 C-3.99 10 -4.98 10 -6 10 C-7.68798827 11.43750191 -7.68798827 11.43750191 -9 13 C-7.71706845 7.98490396 -5.82781946 5.44503751 -2 2 C-1.34 1.34 -0.68 0.68 0 0 Z " fill="#FDE9E3" transform="translate(186,71)"/>
<path d="M0 0 C2.64 0 5.28 0 8 0 C7.875 2.3125 7.875 2.3125 7 5 C3.9375 6.8125 3.9375 6.8125 1 8 C0.67 5.36 0.34 2.72 0 0 Z " fill="#F49489" transform="translate(210,68)"/>
<path d="M0 0 C1.32 0.33 2.64 0.66 4 1 C4 3.31 4 5.62 4 8 C5.32 8.33 6.64 8.66 8 9 C5.36 9 2.72 9 0 9 C0 6.03 0 3.06 0 0 Z " fill="#E91627" transform="translate(204,85)"/>
<path d="M0 0 C3.94827146 0.03153571 7.12913861 0.67637738 10.8125 2.1875 C10.8125 2.5175 10.8125 2.8475 10.8125 3.1875 C8.89614783 3.24173638 6.97935075 3.28039963 5.0625 3.3125 C3.46148437 3.34730469 3.46148437 3.34730469 1.828125 3.3828125 C-1.11220106 3.19237687 -2.71111878 2.71420104 -5.1875 1.1875 C-3.6358498 -0.3641502 -2.15020239 0.0180084 0 0 Z " fill="#1E1C1D" transform="translate(216.1875,108.8125)"/>
<path d="M0 0 C2.31 0.33 4.62 0.66 7 1 C6.67 2.32 6.34 3.64 6 5 C4.02 5 2.04 5 0 5 C0 3.35 0 1.7 0 0 Z " fill="#F27B75" transform="translate(208,87)"/>
<path d="M0 0 C1.98 0 3.96 0 6 0 C6 0.66 6 1.32 6 2 C5.01 2 4.02 2 3 2 C3 2.66 3 3.32 3 4 C3.99 4.33 4.98 4.66 6 5 C1.25 6.125 1.25 6.125 -1 5 C-0.67 3.35 -0.34 1.7 0 0 Z " fill="#D4625E" transform="translate(217,75)"/>
<path d="M0 0 C0.99 0.33 1.98 0.66 3 1 C-0.66505414 4.99824088 -4.11112852 7.60168569 -9 10 C-9.66 9.67 -10.32 9.34 -11 9 C-9.93458984 8.15115234 -9.93458984 8.15115234 -8.84765625 7.28515625 C-7.92855469 6.55167969 -7.00945312 5.81820312 -6.0625 5.0625 C-5.14597656 4.33160156 -4.22945312 3.60070312 -3.28515625 2.84765625 C-1.59148731 1.48061289 -1.59148731 1.48061289 0 0 Z " fill="#262525" transform="translate(153,149)"/>
<path d="M0 0 C2.475 0.99 2.475 0.99 5 2 C4.6875 3.9375 4.6875 3.9375 4 6 C3.01 6.33 2.02 6.66 1 7 C0.01 6.01 -0.98 5.02 -2 4 C-1.34 2.68 -0.68 1.36 0 0 Z " fill="#EB615F" transform="translate(190,103)"/>
<path d="M0 0 C0.66 0 1.32 0 2 0 C2 0.99 2 1.98 2 3 C2.99 2.34 3.98 1.68 5 1 C5.99 1 6.98 1 8 1 C8 2.32 8 3.64 8 5 C7.34 4.67 6.68 4.34 6 4 C5.01 4.495 5.01 4.495 4 5 C2.33805547 5.35613097 0.671549 5.69208308 -1 6 C-1.33 5.34 -1.66 4.68 -2 4 C-1.0625 1.875 -1.0625 1.875 0 0 Z " fill="#888989" transform="translate(200,151)"/>
<path d="M0 0 C0 2.64 0 5.28 0 8 C-1.65 8.66 -3.3 9.32 -5 10 C-4.01 7.69 -3.02 5.38 -2 3 C-3.65 3 -5.3 3 -7 3 C-1 0 -1 0 0 0 Z " fill="#EAA092" transform="translate(203,86)"/>
<path d="M0 0 C-0.33 1.98 -0.66 3.96 -1 6 C-2.65 5.67 -4.3 5.34 -6 5 C-6 3.68 -6 2.36 -6 1 C-4 0 -4 0 0 0 Z " fill="#B9BABA" transform="translate(193,152)"/>
<path d="M0 0 C0.66 0 1.32 0 2 0 C0.94124926 3.40312738 -0.00902154 6.01353231 -2 9 C-1.34 9.33 -0.68 9.66 0 10 C-1.65 10 -3.3 10 -5 10 C-3.35 6.7 -1.7 3.4 0 0 Z " fill="#939494" transform="translate(197,147)"/>
<path d="M0 0 C1.65 0 3.3 0 5 0 C4.6875 1.875 4.6875 1.875 4 4 C-0.1795645 6.78637633 -2.14668677 5.79562512 -7 5 C-7 4.67 -7 4.34 -7 4 C-3.7 3.34 -0.4 2.68 3 2 C2.01 1.34 1.02 0.68 0 0 Z " fill="#D59386" transform="translate(196,90)"/>
<path d="M0 0 C1.45742463 -0.08096803 2.91612807 -0.13917774 4.375 -0.1875 C5.18710938 -0.22230469 5.99921875 -0.25710937 6.8359375 -0.29296875 C7.55007812 -0.19628906 8.26421875 -0.09960938 9 0 C9.66 0.99 10.32 1.98 11 3 C7.37 2.67 3.74 2.34 0 2 C0 1.34 0 0.68 0 0 Z " fill="#392F2C" transform="translate(189,85)"/>
<path d="M0 0 C0.99 0.33 1.98 0.66 3 1 C2.195625 1.680625 1.39125 2.36125 0.5625 3.0625 C-2.42288711 6.48477302 -2.73781251 8.5428126 -3 13 C-3.33 13 -3.66 13 -4 13 C-4.63019694 4.80743982 -4.63019694 4.80743982 -2 1.4375 C-1.34 0.963125 -0.68 0.48875 0 0 Z " fill="#09743D" transform="translate(258,36)"/>
<path d="M0 0 C0.66 0.33 1.32 0.66 2 1 C1.67 2.65 1.34 4.3 1 6 C-0.98 6 -2.96 6 -5 6 C-3.63016497 2.83884224 -3.0109362 2.0072908 0 0 Z " fill="#8D8E8E" transform="translate(232,151)"/>
<path d="M0 0 C1.65 0.33 3.3 0.66 5 1 C4.34 2.32 3.68 3.64 3 5 C0.69 4.67 -1.62 4.34 -4 4 C-3.01 3.67 -2.02 3.34 -1 3 C-0.67 2.01 -0.34 1.02 0 0 Z " fill="#F16B67" transform="translate(216,82)"/>
<path d="M0 0 C0.66 1.32 1.32 2.64 2 4 C1.01 4.33 0.02 4.66 -1 5 C-1.73323796 7.01508358 -1.73323796 7.01508358 -2 9 C-2 7.68 -2 6.36 -2 5 C-2.66 5 -3.32 5 -4 5 C-4 3.68 -4 2.36 -4 1 C-3.01 1.495 -3.01 1.495 -2 2 C-1.34 1.34 -0.68 0.68 0 0 Z " fill="#CDCDCD" transform="translate(248,152)"/>
<path d="M0 0 C3.3 0.33 6.6 0.66 10 1 C6.3558226 3.4294516 4.28758728 3.16179575 0 3 C0 2.01 0 1.02 0 0 Z " fill="#B8463D" transform="translate(227,88)"/>
<path d="M0 0 C-0.99 0.33 -1.98 0.66 -3 1 C-3.33 1.99 -3.66 2.98 -4 4 C-5.65 4 -7.3 4 -9 4 C-9 3.34 -9 2.68 -9 2 C-5.5647952 -0.29013653 -4.014669 -0.17842973 0 0 Z " fill="#F38773" transform="translate(227,61)"/>
<path d="M0 0 C0.66 0.33 1.32 0.66 2 1 C2.99 0.67 3.98 0.34 5 0 C5.33 0.99 5.66 1.98 6 3 C3 5 3 5 0.8125 4.625 C0.214375 4.41875 -0.38375 4.2125 -1 4 C-0.67 2.68 -0.34 1.36 0 0 Z " fill="#ABACAC" transform="translate(172,156)"/>
<path d="M0 0 C0.99 0 1.98 0 3 0 C4.24546405 2.49092811 3.7767578 3.41080733 3 6 C1.68 6 0.36 6 -1 6 C-1.042721 4.33388095 -1.04063832 2.66617115 -1 1 C-0.67 0.67 -0.34 0.34 0 0 Z " fill="#8E8F8F" transform="translate(222,151)"/>
<path d="M0 0 C2.02045442 0.60183749 4.02111039 1.27306096 6 2 C6.33 2.66 6.66 3.32 7 4 C5.02 4.99 5.02 4.99 3 6 C0 2.25 0 2.25 0 0 Z " fill="#EF9086" transform="translate(179,98)"/>
<path d="M0 0 C1.98 0 3.96 0 6 0 C6 0.66 6 1.32 6 2 C6.99 2.33 7.98 2.66 9 3 C5.98968256 3.93423645 5.13349732 4.04449911 2 3 C2 2.34 2 1.68 2 1 C1.34 0.67 0.68 0.34 0 0 Z " fill="#F59C8A" transform="translate(195,61)"/>
<path d="M0 0 C0.66 0 1.32 0 2 0 C2 2.31 2 4.62 2 7 C1.34 7 0.68 7 0 7 C-0.66 5.35 -1.32 3.7 -2 2 C-1.34 1.34 -0.68 0.68 0 0 Z " fill="#A3A4A4" transform="translate(159,156)"/>
<path d="M0 0 C1.65 1.32 3.3 2.64 5 4 C4.01 4 3.02 4 2 4 C1.67 5.32 1.34 6.64 1 8 C0 7 0 7 -0.0625 3.4375 C-0.041875 2.303125 -0.02125 1.16875 0 0 Z " fill="#8C8D8D" transform="translate(152,157)"/>
<path d="M0 0 C0.33 0.99 0.66 1.98 1 3 C-0.40445835 5.2636564 -2.1967913 7.0208685 -4 9 C-4.99 8.34 -5.98 7.68 -7 7 C-6.21625 6.401875 -5.4325 5.80375 -4.625 5.1875 C-1.85425677 3.08914751 -1.85425677 3.08914751 0 0 Z " fill="#F0DFDD" transform="translate(243,99)"/>
<path d="M0 0 C0.66 0 1.32 0 2 0 C1 3 1 3 -1 4 C-0.67 4.99 -0.34 5.98 0 7 C-0.99 7 -1.98 7 -3 7 C-2.25 2.25 -2.25 2.25 0 0 Z " fill="#919292" transform="translate(260,157)"/>
<path d="M0 0 C1.22589844 0.29197266 1.22589844 0.29197266 2.4765625 0.58984375 C3.41628906 0.82380859 3.41628906 0.82380859 4.375 1.0625 C4.375 1.3925 4.375 1.7225 4.375 2.0625 C2.91707116 2.11649736 1.45857288 2.15529177 0 2.1875 C-0.81210938 2.21070312 -1.62421875 2.23390625 -2.4609375 2.2578125 C-4.625 2.0625 -4.625 2.0625 -6.625 0.0625 C-3.99249612 -1.25375194 -2.82320944 -0.68563658 0 0 Z " fill="#F0AF9E" transform="translate(189.625,93.9375)"/>
<path d="M0 0 C1.32 0.33 2.64 0.66 4 1 C3.6875 2.9375 3.6875 2.9375 3 5 C2.01 5.33 1.02 5.66 0 6 C0 4.02 0 2.04 0 0 Z " fill="#F28179" transform="translate(214,68)"/>
</svg>
